# xmcd
#
# Track frame offsets: 
#        150
#        13202
#        26578
#        39121
#        51514
#        64003
#        77980
#        89882
#        102035
#        114641
#        126633
#        140156
#        151527
#        165130
#        178836
#        190094
#        209440
#        226762
#
# Disc length: 3234 seconds
#
# Revision: 2
# Processed by: cddbd v1.5.1PL2 Copyright (c) Steve Scherf et al.
# Submitted via: ExactAudioCopy v0.95a5
#
DISCID=f40ca012
DTITLE=Various Artist - Perfumed Garden, Vol. 3
DYEAR=1995
DGENRE=Psychedelic
TTITLE0=The Longboatmen - Take Her Any Time
TTITLE1=Miller - Baby I Got News For You (Oak Version)
TTITLE2=Les Goths - Out Of The Sun
TTITLE3=Shyster - Tick Tock
TTITLE4=Majotity One - Get Back Home
TTITLE5=The Groundhogs - Sad Go Round
TTITLE6=Herbal Mixture - Please Leave My Mind
TTITLE7=Pete Sully and The Orchard - Evil Woman
TTITLE8=Adam's Recital - There's No Place For Lonely People
TTITLE9=The Cedars - For Your Information
TTITLE10=The Wolves - Lust For Life
TTITLE11=The Actress - It's What You Give
TTITLE12=Reign - Line Of Least Resistance
TTITLE13=Barry Mason - Over The Hills And Far Away
TTITLE14=Boeing Duveen and The Beautiful Soup - Which Dreamed It?
TTITLE15=Andwellas Dream - Felix
TTITLE16=Serendipity - Through With You
TTITLE17=Rupert's People - Hold On
EXTD=YEAR: 2000
EXTT0=
EXTT1=
EXTT2=
EXTT3=
EXTT4=
EXTT5=
EXTT6=
EXTT7=
EXTT8=
EXTT9=
EXTT10=
EXTT11=
EXTT12=
EXTT13=
EXTT14=
EXTT15=
EXTT16=
EXTT17=
PLAYORDER=
